<svg width="422.61" height="594.7200000000001" xmlns="http://www.w3.org/2000/svg" xmlns:xlink="http://www.w3.org/1999/xlink" data-name="Layer 1">
 <defs>
  <linearGradient y2="0.49956" y1="0.49956" x2="1" x1="-0.00022" id="a">
   <stop stop-color="#ecc4d7" offset="0"/>
   <stop stop-color="#efd4d1" offset="0.42"/>
   <stop stop-color="#f2eac9" offset="1"/>
  </linearGradient>
  <linearGradient xlink:href="#a" y2="352.99" y1="332.57" x2="453.59" x1="461.61" id="c"/>
  <linearGradient xlink:href="#a" y2="331.58" y1="331.58" x2="469.3" x1="441.49" id="d"/>
  <linearGradient xlink:href="#a" y2="310.85" y1="310.85" x2="486.63" x1="486.63" id="e"/>
  <linearGradient xlink:href="#a" y2="297.13" y1="297.13" x2="423.07" x1="409.29" id="f"/>
  <linearGradient y2="1.06995" y1="0.39281" x2="-7.44152" x1="1.66769" id="g">
   <stop stop-color="#fff" offset="0"/>
   <stop stop-opacity="0" offset="0"/>
   <stop offset="1"/>
  </linearGradient>
 </defs>
 <g>
  <title>Layer 1</title>
  <path id="svg_1" opacity="0.18" d="m120.48001,141.85c-22.17,23.14 -29.54,56.75 -48.36,82.69c-22,30.34 -60.06,51.17 -68,87.82c-8.7,40.36 23.83,77.36 56.64,102.36c15.8,12.05 32.77,23.67 43.05,40.67c6.43,10.64 9.85,22.78 15,34.1c16.34,36.13 52.45,63.7 92.06,65.71s80.11,-24.15 90.84,-62.32c5.24,-18.66 3.93,-39.54 14.08,-56c13.28,-21.59 41.17,-28.25 61.34,-43.6c38.58,-29.34 40.71,-95.19 4.11,-127c-32.09,-27.86 -85.77,-31.51 -103.81,-70c-4.89,-10.43 -6.28,-22.16 -10.56,-32.85c-22.27,-55.59 -108.17,-61.48 -146.39,-21.58z" fill="#f2bc6d"/>
  <circle id="svg_2" fill="#c47c09" r="21.51" cy="262.46" cx="190.26"/>
  <path id="svg_3" d="m263.10001,425.21s-1.21,27 -2.95,32.23s0.33,7.63 -5.13,9s-3.54,-28.06 -3.54,-28.06l1.84,-11.28l9.78,-1.89z" fill="url(#a)"/>
  <path id="svg_4" d="m206.01001,433.06l12.63,73.93l10.8,0l2.7,-42.59l2.49,53.47l11.85,0s10.19,-58.57 8.31,-69.35a31.51,31.51 0 0 0 -3.31,-10.17l-45.47,-5.29z" fill="#25233a"/>
  <path id="svg_5" d="m213.46001,317.8c-0.44,-5.71 -0.13,-11.78 2.94,-16.61a16.52,16.52 0 0 1 11.21,-7.36c6.57,-1 13,2 19,4.9c8.8,4.32 17.66,8.68 25.4,14.67s14.39,13.84 17.32,23.19a53.22,53.22 0 0 1 2.09,14a54,54 0 0 1 -0.91,13.2a37.76,37.76 0 0 1 -26.83,28c-15,3.9 -32.09,-1.61 -45.66,5.84a6.31,6.31 0 0 1 -3,1.1a3.68,3.68 0 0 1 -3.18,-2.63a8.3,8.3 0 0 1 0,-4.34a23.11,23.11 0 0 1 6.39,-11.62c4.14,-4.05 9.66,-6.39 14.18,-10a4.39,4.39 0 0 0 1.68,-2.12c0.54,-2 -1.54,-3.65 -3.45,-4.39s-4.19,-1.4 -4.95,-3.29c-0.62,-1.53 0,-3.23 0.43,-4.83c1.73,-7 -2,-11.7 -5.85,-16.89c-4.47,-6 -6.25,-13.5 -6.81,-20.82z" fill="#3f3d56"/>
  <path id="svg_6" d="m246.76001,319.87s6.74,11.27 14.49,18.73s20.95,20.87 12.54,31.05a50,50 0 0 1 -18.77,14.07l-17.07,-17.15l0,-28l8.81,-18.7z" fill="#25233a"/>
  <path id="svg_7" d="m187.60001,309.86l16.28,-1.21s-4.57,31.6 17.65,41.86s35.89,12.4 37.4,20.32s7.39,53.63 7.39,53.63l-11.19,2.61l-0.34,-35.35l0.43,44.59s-24.24,13.6 -31.22,10.92s-21.63,-4.91 -21.28,-27.63s11,-38.8 -0.56,-56.09s-14.86,-45.46 -14.56,-53.65z" fill="#68e1fd"/>
  <path id="svg_8" d="m187.60001,309.86l16.28,-1.21s-4.57,31.6 17.65,41.86s35.89,12.4 37.4,20.32s7.39,53.63 7.39,53.63l-11.19,2.61l-0.34,-35.35l0.43,44.59s-24.24,13.6 -31.22,10.92s-21.63,-4.91 -21.28,-27.63s11,-38.8 -0.56,-56.09s-14.86,-45.46 -14.56,-53.65z" fill="#f59e0b"/>
  <path id="svg_9" d="m226.36001,352.72s0.62,9.4 6.66,9.17s6.05,-3.25 6.05,-3.25l3.84,-16.38l-16.55,1s1.88,6.94 0,9.46z" fill="url(#c)"/>
  <path id="svg_10" d="m227.11001,347.56s-0.76,4.84 2.35,6.21s8.12,-0.35 9.33,-1.73l0.28,6.56l2.8,-11.95l-14.76,0.91z" fill="#222a72"/>
  <path id="svg_11" d="m221.18001,319.55s-3.49,24.88 9.05,29.91s16.38,-8.47 18,-14.95s-3.07,-29.7 -13,-26.09a27,27 0 0 0 -14.05,11.13z" fill="url(#d)"/>
  <path id="svg_12" d="m265.87001,308.57" fill="url(#e)"/>
  <path id="svg_13" d="m191.71001,309.56s1.17,-8.7 1.2,-8.86a4.48,4.48 0 0 0 -1.86,-4.23c-1.2,-0.9 -2.52,-3 -2.52,-7.85s5.14,-10.1 7.26,-8s2.13,3.76 4.1,4.07s0.45,5.31 0,7s2.42,17.11 2.42,17.11l-10.6,0.76z" fill="url(#f)"/>
  <polygon id="svg_14" points="254.79 391.76 261.29 425.63 255.13 427.07 254.79 391.76" fill="url(#g)"/>
  <path id="svg_15" d="m234.63001,517.87s-2.81,27.7 1.8,50.21l3.21,0l6.84,-50.21l-11.85,0z" fill="#25233a"/>
  <path id="svg_16" d="m273.79001,504.87" fill="#222a72"/>
  <path id="svg_17" d="m218.64001,506.99l6.44,56.49l2.36,-1s4.42,-40 4.06,-43.86s-2.06,-11.65 -2.06,-11.65l-10.8,0.02z" fill="#25233a"/>
  <path id="svg_18" d="m227.44001,562.5s1.43,2.42 1.27,4.14c-0.12,1.18 -8.28,11.3 -14.11,16.76c-6.3,5.9 -12.41,3.72 -12.41,3.72c-2.28,-0.23 -3.46,-5.47 -1.72,-7a49.53,49.53 0 0 1 12.64,-7.88c10.45,-4.42 12,-8.8 12,-8.8l2.33,-0.94zm8.99,5.58a15.45,15.45 0 0 0 -0.67,6.09c0.4,2.93 13,17.27 13,17.27s10.32,6.7 13.94,0.94s-10.68,-13.4 -13.52,-15s-9.54,-9.29 -9.54,-9.29l-3.21,-0.01z" fill="#25233a"/>
  <path id="svg_19" d="m164.24001,229.21a21.93,21.93 0 0 0 20.48,15.39c5.75,0 12.22,-2.19 18.22,-9.44c16,-19.32 -13.45,-53.37 26.22,-94.54s43.8,-114.15 -27.45,-119c-54.41,-3.68 -76.67,30.16 -82.93,51.34l0,21.47l38.22,15s14.62,-44.36 38.69,-38.71s1.4,45.43 -13.79,60.55c-33.47,33.33 -23.79,78.89 -17.66,97.94z" fill="#c47c09"/>
  <path id="svg_20" d="m164.24001,202.02a22,22 0 0 0 20.48,15.39c5.75,0 12.22,-2.61 18.22,-9.85c16,-19.33 -15.49,-38.54 24.19,-79.71s45.86,-122.81 -25.39,-127.63s-82.93,72.77 -82.93,72.77l38.22,15s14.59,-44.31 38.66,-38.68s1.4,45.42 -13.79,60.55c-33.47,33.3 -23.79,73.11 -17.66,92.16z" fill="#f59e0b"/>
  <circle id="svg_21" fill="#f59e0b" r="21.51" cy="248.39" cx="191.26"/>
  <circle transform="rotate(-64.95 316.98 256.88)" id="svg_22" fill="#c47c09" r="9.14" cy="256.88" cx="316.98"/>
  <path id="svg_23" d="m81.01001,245.08a9.35,9.35 0 0 0 10.42,3.18c2.3,-0.82 4.56,-2.65 5.91,-6.42c3.58,-10 -13.12,-19.37 -3.23,-41.58s0.94,-52 -28.22,-43.56c-22.28,6.42 -26.27,23.17 -25.7,32.55l3.11,8.56l17.44,0.44s-0.6,-19.83 9.84,-21.07s7.15,17.95 3.27,26.2c-8.54,18.18 1.94,34.98 7.16,41.7z" fill="#c47c09"/>
  <path id="svg_24" d="m77.07001,234.21a9.31,9.31 0 0 0 10.41,3.18c2.31,-0.82 4.51,-2.81 5.85,-6.58c3.59,-10 -11.77,-13.15 -1.89,-35.36s0.51,-55.72 -28.66,-47.31s-22.54,41.11 -22.54,41.11l17.44,0.43s-0.59,-19.82 9.84,-21.06s7.15,17.95 3.27,26.19c-8.55,18.18 1.05,32.68 6.28,39.4z" fill="#f59e0b"/>
  <circle transform="rotate(-26.08 314.94 251.25)" id="svg_25" fill="#f59e0b" r="9.14" cy="251.25" cx="314.94"/>
  <path id="svg_26" d="m55.94001,342.25a9.14,9.14 0 1 1 -10.89,-7a9.13,9.13 0 0 1 10.89,7z" fill="#c47c09"/>
  <path id="svg_27" d="m33.18001,332.78a9.32,9.32 0 0 0 9.91,4.52c2.39,-0.51 4.88,-2 6.7,-5.58c4.87,-9.48 -10.46,-20.93 2.25,-41.65s7.76,-51.39 -22.26,-46.88c-22.93,3.44 -29.08,19.52 -29.74,28.89l2,8.9l17.2,2.74s2,-19.73 12.52,-19.59s4.73,18.73 -0.19,26.39c-10.87,16.89 -2.68,34.92 1.61,42.26z" fill="#c47c09"/>
  <path id="svg_28" d="m30.70001,321.49a9.33,9.33 0 0 0 9.91,4.52c2.39,-0.51 4.83,-2.2 6.66,-5.75c4.87,-9.48 -9.95,-14.58 2.76,-35.3s7.81,-55.18 -22.21,-50.67s-27.78,37.79 -27.78,37.79l17.2,2.72s2,-19.73 12.52,-19.59s4.73,18.73 -0.19,26.39c-10.82,16.91 -3.17,32.55 1.13,39.89z" fill="#f59e0b"/>
  <path id="svg_30" d="m323.49001,273.56a9.14,9.14 0 1 1 -6.88,-10.95a9.15,9.15 0 0 1 6.88,10.95z" fill="#c47c09"/>
  <path id="svg_31" d="m306.96001,255.28a9.32,9.32 0 0 0 7,8.32c2.37,0.56 5.27,0.25 8.44,-2.18c8.45,-6.49 -0.51,-23.39 19.83,-36.69s29,-43.15 -0.09,-51.9c-22.2,-6.69 -34.64,5.22 -39.24,13.41l-2,8.88l14.42,9.82s10.25,-17 19.69,-12.36s-3.73,18.95 -11.46,23.78c-17.03,10.64 -17.31,30.44 -16.59,38.92z" fill="#c47c09"/>
  <path id="svg_32" d="m309.54001,244.01a9.31,9.31 0 0 0 7,8.32c2.38,0.57 5.32,0.08 8.49,-2.35c8.45,-6.49 -2.77,-17.44 17.58,-30.74s30.63,-46.52 1.63,-55.3s-41.27,22.3 -41.27,22.3l14.42,9.82s10.25,-17 19.69,-12.37s-3.73,19 -11.45,23.79c-17.08,10.64 -16.84,28.06 -16.09,36.53z" fill="#f59e0b"/>
  <circle transform="rotate(-68.3 536.67 267.97)" id="svg_33" fill="#f59e0b" r="9.14" cy="267.97" cx="536.67"/>
  <path id="svg_34" d="m369.90001,355.33a6.79,6.79 0 1 1 -1.63,-9.47a6.79,6.79 0 0 1 1.63,9.47z" fill="#c47c09"/>
  <path id="svg_35" d="m363.70001,338.09a6.93,6.93 0 0 0 2.49,7.7a7.22,7.22 0 0 0 6.42,0.89c7.65,-2.07 6.26,-16.23 24,-19.63s32.13,-21.48 14.61,-35.72c-13.37,-10.87 -25.29,-6.2 -30.77,-1.87l-3.91,5.53l7.14,10.84s11.85,-8.78 17,-2.94s-7.92,12 -14.6,13.12c-14.68,2.5 -20.49,16.03 -22.38,22.08z" fill="#c47c09"/>
  <path id="svg_36" d="m368.66001,331.06a6.94,6.94 0 0 0 2.49,7.71c1.47,1.06 3.63,1.56 6.49,0.78c7.65,-2.07 3,-12.77 20.79,-16.16s34.23,-23.35 16.71,-37.59s-34.68,3.66 -34.68,3.66l7.14,10.83s11.85,-8.78 17,-2.93s-7.92,12 -14.6,13.12c-14.69,2.5 -19.45,14.54 -21.34,20.58z" fill="#f59e0b"/>
  <circle transform="rotate(-55.54 587.68 350.06)" id="svg_37" fill="#f59e0b" r="6.8" cy="350.06" cx="587.68"/>
  <path id="svg_38" d="m190.85001,535.95a0.7,0.7 0 0 1 -0.36,-0.1a0.71,0.71 0 0 1 -0.26,-1a238.22,238.22 0 0 0 18.45,-43.52c7.42,-23.55 14.42,-58.7 5.6,-92.44c-17,-64.95 -20.94,-104.83 -21,-105.23a0.72,0.72 0 0 1 0.65,-0.78a0.71,0.71 0 0 1 0.77,0.64c0,0.4 4,40.18 20.94,105c8.91,34.08 1.86,69.53 -5.63,93.27a240.84,240.84 0 0 1 -18.56,43.77a0.72,0.72 0 0 1 -0.6,0.39z" fill="#fff"/>
 </g>
</svg>